# xmcd
#
# Track frame offsets:
# 150
# 20675
# 39719
# 57184
# 76678
# 99035
# 119584
# 134376
# 155832
# 172964
# 192327
# 211641
# 227995
# 247442
# 267951
# 286217
#
# Disc length: 4046 seconds
#
#
# Revision: 0
# Processed by: cddbd v1.5.2PL0 Copyright (c) Steve Scherf et al.
# Submitted via: FreeRIP 2.951 
#
DISCID=e10fcc10
DTITLE=Belo - 2006
DYEAR=2006
DGENRE=Samba
TTITLE0=Tá Fazendo Frio
TTITLE1=Nada Vai Separar
TTITLE2=Só Você
TTITLE3=Intriga da Oposição
TTITLE4=Pra Ver o Sol Brilhar
TTITLE5=Se Quer Ficar Comigo
TTITLE6=Você Sabe
TTITLE7=Quero Te Amar
TTITLE8=Deixa o Sonho nos Levar
TTITLE9=Algo Além
TTITLE10=Razão da Minha Vida
TTITLE11=Se for Sonhar
TTITLE12=Não Vou Entregar
TTITLE13=Diz pra Ela
TTITLE14=Tanto pra Te Dar
TTITLE15=Vem
EXTD=
EXTT0=
EXTT1=
EXTT2=
EXTT3=
EXTT4=
EXTT5=
EXTT6=
EXTT7=
EXTT8=
EXTT9=
EXTT10=
EXTT11=
EXTT12=
EXTT13=
EXTT14=
EXTT15=
PLAYORDER=
